<?xml version="1.0" encoding="UTF-8" standalone="no"?>
<!-- Created with Inkscape (http://www.inkscape.org/) -->

<svg
   xmlns:dc="http://purl.org/dc/elements/1.1/"
   xmlns:cc="http://creativecommons.org/ns#"
   xmlns:rdf="http://www.w3.org/1999/02/22-rdf-syntax-ns#"
   xmlns:svg="http://www.w3.org/2000/svg"
   xmlns="http://www.w3.org/2000/svg"
   xmlns:sodipodi="http://sodipodi.sourceforge.net/DTD/sodipodi-0.dtd"
   xmlns:inkscape="http://www.inkscape.org/namespaces/inkscape"
   width="620mm"
   height="360mm"
   viewBox="0 0 2196.8505 1275.5906"
   id="svg2"
   version="1.1"
   inkscape:version="0.92.4 (5da689c313, 2019-01-14)"
   sodipodi:docname="plaque sol analyse_obj_to_path_20171013_contour.svg">
  <defs
     id="defs4" />
  <sodipodi:namedview
     id="base"
     pagecolor="#ffffff"
     bordercolor="#666666"
     borderopacity="1.0"
     inkscape:pageopacity="0.0"
     inkscape:pageshadow="2"
     inkscape:zoom="0.25"
     inkscape:cx="2111.9129"
     inkscape:cy="709.78773"
     inkscape:document-units="mm"
     inkscape:current-layer="svg2"
     showgrid="false"
     inkscape:snap-grids="false"
     inkscape:snap-to-guides="false"
     inkscape:snap-others="false"
     inkscape:snap-nodes="false"
     inkscape:snap-global="false"
     inkscape:window-width="1918"
     inkscape:window-height="1038"
     inkscape:window-x="0"
     inkscape:window-y="20"
     inkscape:window-maximized="1"
     inkscape:showpageshadow="false" />
  <metadata
     id="metadata7">
    <rdf:RDF>
      <cc:Work
         rdf:about="">
        <dc:format>image/svg+xml</dc:format>
        <dc:type
           rdf:resource="http://purl.org/dc/dcmitype/StillImage" />
        <dc:title></dc:title>
      </cc:Work>
    </rdf:RDF>
  </metadata>
  <path
     style="fill:none;fill-opacity:1;stroke:#000000;stroke-width:1.10889459;stroke-linecap:round;stroke-linejoin:miter;stroke-miterlimit:4;stroke-dasharray:none;stroke-opacity:0.99447512"
     d="m 255.67259,524.96393 h 20.15095 v 672.11947 h -20.15095 z"
     id="rect4138" />
  <path
     style="fill:none;fill-opacity:1;stroke:#000000;stroke-width:1.10889459;stroke-linecap:round;stroke-linejoin:miter;stroke-miterlimit:4;stroke-dasharray:none;stroke-opacity:0.99447512"
     d="m 751.7356,524.96393 h 20.15095 V 1197.0834 H 751.7356 Z"
     id="rect4140" />
  <path
     style="fill:none;fill-opacity:1;stroke:#000000;stroke-width:1.10889459;stroke-linecap:round;stroke-linejoin:miter;stroke-miterlimit:4;stroke-dasharray:none;stroke-opacity:0.99447512"
     d="m 1424.9641,524.96393 h 20.151 v 672.11947 h -20.151 z"
     id="rect4142" />
  <path
     style="fill:none;fill-opacity:1;stroke:#000000;stroke-width:1.10889459;stroke-linecap:round;stroke-linejoin:miter;stroke-miterlimit:4;stroke-dasharray:none;stroke-opacity:0.99447512"
     d="m 1921.0271,524.96393 h 20.151 v 672.11947 h -20.151 z"
     id="rect4144" />
  <path
     style="fill:none;fill-opacity:1;stroke:#000000;stroke-width:1.10905528;stroke-linecap:round;stroke-linejoin:miter;stroke-miterlimit:4;stroke-dasharray:none;stroke-opacity:0.99447512"
     d="m 1106.1145,584.46851 a 10.653929,10.653929 0 0 1 -10.6539,10.65392 10.653929,10.653929 0 0 1 -10.654,-10.65392 10.653929,10.653929 0 0 1 10.654,-10.65393 10.653929,10.653929 0 0 1 10.6539,10.65393 z"
     id="path4197" />
  <path
     style="fill:none;fill-opacity:1;stroke:#000000;stroke-width:1.10905528;stroke-linecap:round;stroke-linejoin:miter;stroke-miterlimit:4;stroke-dasharray:none;stroke-opacity:0.99447512"
     d="m 1106.1145,286.42929 a 10.65393,10.65393 0 0 1 -10.6539,10.65393 10.65393,10.65393 0 0 1 -10.654,-10.65393 10.65393,10.65393 0 0 1 10.654,-10.65393 10.65393,10.65393 0 0 1 10.6539,10.65393 z"
     id="path4197-2" />
  <path
     style="fill:none;fill-opacity:1;stroke:#000000;stroke-width:1.10905528;stroke-linecap:round;stroke-linejoin:miter;stroke-miterlimit:4;stroke-dasharray:none;stroke-opacity:0.99447512"
     d="m 1106.1145,399.81516 a 10.65393,10.65393 0 0 1 -10.6539,10.65392 10.65393,10.65393 0 0 1 -10.654,-10.65392 10.65393,10.65393 0 0 1 10.654,-10.65393 10.65393,10.65393 0 0 1 10.6539,10.65393 z"
     id="path4197-6" />
  <path
     style="fill:none;fill-opacity:1;stroke:#000000;stroke-width:1.10905528;stroke-linecap:round;stroke-linejoin:miter;stroke-miterlimit:4;stroke-dasharray:none;stroke-opacity:0.99447512"
     d="m 1106.1145,70.287544 a 10.65393,10.65393 0 0 1 -10.6539,10.65393 10.65393,10.65393 0 0 1 -10.654,-10.65393 10.65393,10.65393 0 0 1 10.654,-10.653929 10.65393,10.65393 0 0 1 10.6539,10.653929 z"
     id="path4197-8" />
  <path
     style="fill:none;fill-opacity:1;stroke:#000000;stroke-width:1.10905528;stroke-linecap:round;stroke-linejoin:miter;stroke-miterlimit:4;stroke-dasharray:none;stroke-opacity:0.99447512"
     d="m 971.06738,1016.752 a 10.65393,10.65393 0 0 1 -10.65393,10.6539 10.65393,10.65393 0 0 1 -10.65393,-10.6539 10.65393,10.65393 0 0 1 10.65393,-10.6539 10.65393,10.65393 0 0 1 10.65393,10.6539 z"
     id="path4197-7" />
  <path
     style="fill:none;fill-opacity:1;stroke:#000000;stroke-width:1.10905528;stroke-linecap:round;stroke-linejoin:miter;stroke-miterlimit:4;stroke-dasharray:none;stroke-opacity:0.99447512"
     d="m 1250.9888,1016.752 a 10.65393,10.65393 0 0 1 -10.654,10.6539 10.65393,10.65393 0 0 1 -10.6539,-10.6539 10.65393,10.65393 0 0 1 10.6539,-10.6539 10.65393,10.65393 0 0 1 10.654,10.6539 z"
     id="path4197-66" />
  <path
     style="fill:none;fill-opacity:1;stroke:#000000;stroke-width:1.07932675;stroke-linecap:round;stroke-linejoin:miter;stroke-miterlimit:4;stroke-dasharray:none;stroke-opacity:0.99447512"
     d="m 202.55655,35.433014 a 10.654102,10.09026 0 0 1 -10.6541,10.090259 10.654102,10.09026 0 0 1 -10.6541,-10.090259 10.654102,10.09026 0 0 1 10.6541,-10.09026 10.654102,10.09026 0 0 1 10.6541,10.09026 z"
     id="path4197-66-0" />
  <path
     style="fill:none;fill-opacity:1;stroke:#000000;stroke-width:1.07932675;stroke-linecap:round;stroke-linejoin:miter;stroke-miterlimit:4;stroke-dasharray:none;stroke-opacity:0.99447512"
     d="m 358.46462,35.433014 a 10.654102,10.09026 0 0 1 -10.6541,10.090259 10.654102,10.09026 0 0 1 -10.65411,-10.090259 10.654102,10.09026 0 0 1 10.65411,-10.09026 10.654102,10.09026 0 0 1 10.6541,10.09026 z"
     id="path4197-66-6" />
  <path
     style="fill:none;fill-opacity:1;stroke:#000000;stroke-width:1.07932675;stroke-linecap:round;stroke-linejoin:miter;stroke-miterlimit:4;stroke-dasharray:none;stroke-opacity:0.99447512"
     d="m 691.54088,35.433014 a 10.654102,10.09026 0 0 1 -10.6541,10.090259 10.654102,10.09026 0 0 1 -10.6541,-10.090259 10.654102,10.09026 0 0 1 10.6541,-10.09026 10.654102,10.09026 0 0 1 10.6541,10.09026 z"
     id="path4197-66-1" />
  <path
     style="fill:none;fill-opacity:1;stroke:#000000;stroke-width:1.07932675;stroke-linecap:round;stroke-linejoin:miter;stroke-miterlimit:4;stroke-dasharray:none;stroke-opacity:0.99447512"
     d="m 850.99236,35.433014 a 10.654102,10.09026 0 0 1 -10.6541,10.090259 10.654102,10.09026 0 0 1 -10.65411,-10.090259 10.654102,10.09026 0 0 1 10.65411,-10.09026 10.654102,10.09026 0 0 1 10.6541,10.09026 z"
     id="path4197-66-2" />
  <path
     style="fill:none;fill-opacity:1;stroke:#000000;stroke-width:1.07932675;stroke-linecap:round;stroke-linejoin:miter;stroke-miterlimit:4;stroke-dasharray:none;stroke-opacity:0.99447512"
     d="m 1375.4103,35.433014 a 10.654102,10.09026 0 0 1 -10.6541,10.090259 10.654102,10.09026 0 0 1 -10.6541,-10.090259 10.654102,10.09026 0 0 1 10.6541,-10.09026 10.654102,10.09026 0 0 1 10.6541,10.09026 z"
     id="path4197-66-5" />
  <path
     style="fill:none;fill-opacity:1;stroke:#000000;stroke-width:1.07932675;stroke-linecap:round;stroke-linejoin:miter;stroke-miterlimit:4;stroke-dasharray:none;stroke-opacity:0.99447512"
     d="m 1527.775,35.433014 a 10.654102,10.09026 0 0 1 -10.6542,10.090259 10.654102,10.09026 0 0 1 -10.6541,-10.090259 10.654102,10.09026 0 0 1 10.6541,-10.09026 10.654102,10.09026 0 0 1 10.6542,10.09026 z"
     id="path4197-66-17" />
  <path
     style="fill:none;fill-opacity:1;stroke:#000000;stroke-width:1.07932675;stroke-linecap:round;stroke-linejoin:miter;stroke-miterlimit:4;stroke-dasharray:none;stroke-opacity:0.99447512"
     d="m 1860.8512,35.433014 a 10.654102,10.09026 0 0 1 -10.6541,10.090259 10.654102,10.09026 0 0 1 -10.6541,-10.090259 10.654102,10.09026 0 0 1 10.6541,-10.09026 10.654102,10.09026 0 0 1 10.6541,10.09026 z"
     id="path4197-66-04" />
  <path
     style="fill:none;fill-opacity:1;stroke:#000000;stroke-width:1.07932675;stroke-linecap:round;stroke-linejoin:miter;stroke-miterlimit:4;stroke-dasharray:none;stroke-opacity:0.99447512"
     d="m 2020.3028,35.433014 a 10.654102,10.09026 0 0 1 -10.6541,10.090259 10.654102,10.09026 0 0 1 -10.6541,-10.090259 10.654102,10.09026 0 0 1 10.6541,-10.09026 10.654102,10.09026 0 0 1 10.6541,10.09026 z"
     id="path4197-66-043" />
  <path
     style="fill:none;fill-opacity:1;stroke:#000000;stroke-width:1.10905528;stroke-linecap:round;stroke-linejoin:miter;stroke-miterlimit:4;stroke-dasharray:none;stroke-opacity:0.99447512"
     d="m 1860.839,1239.579 a 10.653931,10.653931 0 0 1 -10.6539,10.6539 10.653931,10.653931 0 0 1 -10.654,-10.6539 10.653931,10.653931 0 0 1 10.654,-10.654 10.653931,10.653931 0 0 1 10.6539,10.654 z"
     id="path4197-66-26" />
  <path
     style="fill:none;fill-opacity:1;stroke:#000000;stroke-width:1.10905528;stroke-linecap:round;stroke-linejoin:miter;stroke-miterlimit:4;stroke-dasharray:none;stroke-opacity:0.99447512"
     d="m 2020.2878,1239.579 a 10.653931,10.653931 0 0 1 -10.6539,10.6539 10.653931,10.653931 0 0 1 -10.6539,-10.6539 10.653931,10.653931 0 0 1 10.6539,-10.654 10.653931,10.653931 0 0 1 10.6539,10.654 z"
     id="path4197-66-3" />
  <path
     style="fill:none;fill-opacity:1;stroke:#000000;stroke-width:1.10905528;stroke-linecap:round;stroke-linejoin:miter;stroke-miterlimit:4;stroke-dasharray:none;stroke-opacity:0.99447512"
     d="m 1375.4059,1239.579 a 10.653931,10.653931 0 0 1 -10.6539,10.6539 10.653931,10.653931 0 0 1 -10.654,-10.6539 10.653931,10.653931 0 0 1 10.654,-10.654 10.653931,10.653931 0 0 1 10.6539,10.654 z"
     id="path4197-66-9" />
  <path
     style="fill:none;fill-opacity:1;stroke:#000000;stroke-width:1.10905528;stroke-linecap:round;stroke-linejoin:miter;stroke-miterlimit:4;stroke-dasharray:none;stroke-opacity:0.99447512"
     d="m 1527.7681,1239.579 a 10.653931,10.653931 0 0 1 -10.654,10.6539 10.653931,10.653931 0 0 1 -10.6539,-10.6539 10.653931,10.653931 0 0 1 10.6539,-10.654 10.653931,10.653931 0 0 1 10.654,10.654 z"
     id="path4197-66-4" />
  <path
     style="fill:none;fill-opacity:1;stroke:#000000;stroke-width:1.10905528;stroke-linecap:round;stroke-linejoin:miter;stroke-miterlimit:4;stroke-dasharray:none;stroke-opacity:0.99447512"
     d="m 691.54749,1239.579 a 10.653931,10.653931 0 0 1 -10.65394,10.6539 10.653931,10.653931 0 0 1 -10.65393,-10.6539 10.653931,10.653931 0 0 1 10.65393,-10.654 10.653931,10.653931 0 0 1 10.65394,10.654 z"
     id="path4197-66-94" />
  <path
     style="fill:none;fill-opacity:1;stroke:#000000;stroke-width:1.10905528;stroke-linecap:round;stroke-linejoin:miter;stroke-miterlimit:4;stroke-dasharray:none;stroke-opacity:0.99447512"
     d="m 850.99634,1239.579 a 10.653931,10.653931 0 0 1 -10.65393,10.6539 10.653931,10.653931 0 0 1 -10.65393,-10.6539 10.653931,10.653931 0 0 1 10.65393,-10.654 10.653931,10.653931 0 0 1 10.65393,10.654 z"
     id="path4197-66-05" />
  <path
     style="fill:none;fill-opacity:1;stroke:#000000;stroke-width:1.10905528;stroke-linecap:round;stroke-linejoin:miter;stroke-miterlimit:4;stroke-dasharray:none;stroke-opacity:0.99447512"
     d="m 202.57108,1239.579 a 10.653931,10.653931 0 0 1 -10.65394,10.6539 10.653931,10.653931 0 0 1 -10.65393,-10.6539 10.653931,10.653931 0 0 1 10.65393,-10.654 10.653931,10.653931 0 0 1 10.65394,10.654 z"
     id="path4197-66-58" />
  <path
     style="fill:none;fill-opacity:1;stroke:#000000;stroke-width:1.10905528;stroke-linecap:round;stroke-linejoin:miter;stroke-miterlimit:4;stroke-dasharray:none;stroke-opacity:0.99447512"
     d="m 358.47662,1239.579 a 10.653931,10.653931 0 0 1 -10.65393,10.6539 10.653931,10.653931 0 0 1 -10.65393,-10.6539 10.653931,10.653931 0 0 1 10.65393,-10.654 10.653931,10.653931 0 0 1 10.65393,10.654 z"
     id="path4197-66-7" />
  <rect
     style="opacity:1;fill:none;fill-opacity:1;fill-rule:nonzero;stroke:#000000;stroke-width:1.04527569;stroke-miterlimit:4;stroke-dasharray:none;stroke-opacity:0.99447494"
     id="rect840"
     width="2196.8506"
     height="1275.5906"
     x="0"
     y="2.2737368e-13" />
</svg>
